<?xml version="1.0" encoding="utf-8"?>
<!-- Generator: Adobe Illustrator 25.4.1, SVG Export Plug-In . SVG Version: 6.00 Build 0)  -->
<svg version="1.1" id="Layer_1" xmlns="http://www.w3.org/2000/svg" xmlns:xlink="http://www.w3.org/1999/xlink" x="0px" y="0px"
	 viewBox="0 0 500 500" style="enable-background:new 0 0 500 500;" xml:space="preserve">
<style type="text/css">
	.st0{fill:#29ABE2;}
	.st1{fill:#1A1A1A;}
</style>
<g>
	<circle class="st0" cx="250" cy="250" r="219"/>
	<g>
		<path class="st1" d="M364,377.36c-5.03,0-9.29-0.39-14.32-0.78c-28.26-1.93-43.35-9.29-60.39-33.29
			c-14.32-19.74-28.26-44.13-40.64-63.87c-7.74-12.39-12.77-14.71-32.52-14.71h-13.55v60.77c0,32.9,4.26,34.84,35.23,37.94v10.84
			H134.45v-10.84c32.13-3.48,34.84-5.03,34.84-37.94V171.03c0-32.9-4.26-34.06-34.84-37.55v-10.84h98.71
			c28.26,0,47.23,3.48,61.94,13.16c15.87,10.06,26.32,27.48,26.32,51.1c0,33.29-21.29,54.2-49.94,66.58
			c6.97,12,23.61,37.94,35.23,55.35c14.32,20.52,21.67,30.19,30.58,39.87c10.45,11.23,19.36,15.48,28.26,17.81L364,377.36z
			 M221.16,251.55c20.13,0,32.9-3.1,42.58-11.23c15.09-11.23,21.29-26.71,21.29-47.61c0-41.42-27.48-56.52-57.29-56.52
			c-11.23,0-17.81,1.55-20.52,3.87c-3.48,2.71-4.64,6.58-4.64,16.65v94.84H221.16z"/>
	</g>
</g>
</svg>
